<mxfile host="app.diagrams.net" modified="2021-01-28T12:09:54.258Z" agent="5.0 (Windows)" etag="4bzmtINOYBuany7vuXD2" version="14.2.7" type="github">
  <diagram id="6g9CYFeaIedKOHrS-u5r" name="Page-1">
    <mxGraphModel dx="1038" dy="547" grid="1" gridSize="10" guides="1" tooltips="1" connect="1" arrows="1" fold="1" page="1" pageScale="1" pageWidth="1169" pageHeight="827" math="0" shadow="0">
      <root>
        <mxCell id="0" />
        <mxCell id="1" parent="0" />
        <mxCell id="Q0Rn-usG1npKYPO_bdDH-1" value="Concept note development" style="swimlane;startSize=23;" vertex="1" parent="1">
          <mxGeometry x="10" y="10" width="1150" height="810" as="geometry" />
        </mxCell>
      </root>
    </mxGraphModel>
  </diagram>
</mxfile>
